# xmcd CD database file
#
# Track frame offsets:
#	150
#	26692
#	45747
#	65700
#	83372
#	110787
#	142302
#	163187
#	181562
#
# Disc length: 2783 seconds
#
# Revision: 0
# Processed by: cddbd v1.5.2PL0 Copyright (c) Steve Scherf et al.
# Submitted via: CDex 1.51
#
DISCID=7a0add09
DTITLE=Tiziana Simona - Flakes with Mal Waldron Steve Lacy Kenny Wheeler Enrico Rava
DYEAR=1986
DGENRE=Jazz
TTITLE0=Flakes to Mark Rothko
TTITLE1=Little One
TTITLE2=Bo If chinese
TTITLE3=Flowers For Albert
TTITLE4=Left Alone
TTITLE5=Fling
TTITLE6=546
TTITLE7=Kind Folk
TTITLE8=Gigolo
EXTD=YEAR: 1986
EXTT0=
EXTT1=
EXTT2=
EXTT3=
EXTT4=
EXTT5=
EXTT6=
EXTT7=
EXTT8=
PLAYORDER=
